<svg xmlns="http://www.w3.org/2000/svg" xmlns:xlink="http://www.w3.org/1999/xlink" version="1.1" x="0px" y="0px" viewBox="0 0 50 90" enable-background="new 0 0 100 100" fill="white" xml:space="preserve"><path d="M93.75,66.328c-3.587,0.09-6.109-0.865-8.379-2.168c4.118-5.159,6.159-10.068,6.246-10.282l0.412-1.009l-0.956-0.521  c-0.187-0.101-4.521-2.435-10.596-3.858c1.436-5.942,1.196-10.95,1.177-11.313l-0.061-1.089l-1.088-0.06  c-0.263-0.015-4.146-0.202-9.122,0.724c-1.119-5.016-2.825-8.533-2.9-8.687l-0.479-0.979l-1.026,0.37  c-0.165,0.062-3.988,1.467-8.393,4.424c-3.398-5.979-7.714-9.902-8.011-10.169l-0.812-0.727l-0.812,0.727  c-0.299,0.268-4.646,4.221-8.049,10.238c-4.361-2.95-8.171-4.347-8.334-4.405l-1.025-0.371l-0.479,0.979  c-0.077,0.157-1.871,3.853-2.961,9.06c-5.183-1.05-9.32-0.851-9.598-0.835l-1.088,0.06l-0.06,1.087  c-0.021,0.372-0.276,5.709,1.352,11.867c-5.687,1.339-9.746,3.522-9.921,3.617c-0.544,0.297-0.778,0.955-0.543,1.529  c0.083,0.204,2.05,4.936,6.021,9.851c-2.18,1.197-4.628,2.048-8.017,1.929c-0.55-0.016-1.011,0.316-1.184,0.819  c-0.173,0.501-0.001,1.057,0.425,1.373c0.578,0.429,14.275,10.504,24.987,10.504c8.143,0,15.89-5.28,19.263-7.928l0.021,0.02  l0.343-0.308c0.023-0.019,0.053-0.041,0.076-0.061c3.124,2.517,11.12,8.204,19.539,8.204c10.63,0,24.215-9.995,24.788-10.421  c0.427-0.316,0.598-0.873,0.425-1.375C94.76,66.645,94.277,66.302,93.75,66.328z M79.828,50.837  c4.131,0.961,7.479,2.393,9.071,3.146c-0.81,1.699-2.687,5.267-5.608,8.879c-0.247-0.164-0.493-0.327-0.74-0.494  c-1.957-1.32-3.976-2.675-6.527-3.482C77.774,56.325,78.988,53.539,79.828,50.837z M66.758,30.172  c0.565,1.349,1.535,3.923,2.246,7.097c-2.311,0.572-4.755,1.398-7.123,2.589c-0.53-2.061-1.285-4.007-2.159-5.808  C62.628,32.07,65.334,30.786,66.758,30.172z M32.79,30.259c1.414,0.609,4.096,1.884,6.978,3.862c-0.949,1.971-1.754,4.116-2.28,6.39  c-2.31-1.25-4.719-2.127-7.017-2.742C31.171,34.407,32.199,31.668,32.79,30.259z M37.032,43.049  c-0.125,0.981-0.199,1.979-0.199,2.996c0,9.609,6.039,17.778,9.597,21.757c-4.924-0.327-13.432-1.754-19.122-7.445  c-6.854-6.855-7.512-18.004-7.537-21.567C22.654,38.807,30.507,39.238,37.032,43.049z M10.963,54.644  c1.517-0.714,4.619-2.029,8.448-2.917c0.853,2.519,2.051,5.085,3.727,7.438c-2.117,0.826-3.879,2.005-5.59,3.158  c-0.396,0.268-0.788,0.533-1.184,0.793C13.566,59.712,11.76,56.299,10.963,54.644z M30.479,76.581  c-7.135,0-16.132-5.148-20.658-8.066c3.846-0.637,6.501-2.43,9.088-4.176c1.869-1.261,3.648-2.454,5.826-3.167  c0.274,0.307,0.558,0.609,0.853,0.904c6.456,6.457,16.031,7.899,21.205,8.185C43.183,72.862,36.902,76.581,30.479,76.581z   M49.762,67.779c-2.593-2.615-10.497-11.438-10.497-21.734c0-10.273,7.905-19.111,10.498-21.731  c2.592,2.62,10.497,11.458,10.497,21.731C60.26,56.322,52.354,65.16,49.762,67.779z M62.692,46.045c0-1.264-0.105-2.502-0.296-3.71  c6.502-3.47,14.035-3.875,16.846-3.893c-0.021,3.613-0.67,15.044-7.711,22.087c-5.536,5.537-13.82,7.108-18.683,7.545  C56.364,64.208,62.692,55.884,62.692,46.045z M69.721,76.509c-6.207,0-12.282-3.501-15.911-6.078  c5.679-0.584,13.728-2.467,19.442-8.181c0.414-0.415,0.802-0.846,1.177-1.283c2.624,0.637,4.639,1.986,6.762,3.418  c2.562,1.729,5.189,3.503,8.992,4.139C85.688,71.42,76.783,76.509,69.721,76.509z"/></svg>